<svg xmlns="http://www.w3.org/2000/svg" fill="none" viewBox="0 0 117 20">
  <g clip-path="url(#a)">
    <path fill="#75D281" d="M9.817.918c.344-.817 1.514-.817 1.858 0l2.029 4.818c.145.345.473.58.849.61l5.266.417c.892.07 1.254 1.17.574 1.746l-4.012 3.395a.987.987 0 0 0-.324.986l1.225 5.076c.208.86-.739 1.54-1.503 1.08l-4.508-2.721a1.017 1.017 0 0 0-1.05 0l-4.508 2.72c-.764.461-1.711-.219-1.503-1.079l1.226-5.077a.987.987 0 0 0-.325-.985L1.1 8.509c-.68-.576-.318-1.676.574-1.746l5.266-.417c.377-.03.704-.265.85-.61L9.816.918ZM33.817.918c.344-.817 1.514-.817 1.858 0l2.029 4.818c.145.345.473.58.849.61l5.266.417c.892.07 1.254 1.17.574 1.746l-4.012 3.395a.987.987 0 0 0-.324.986l1.225 5.076c.208.86-.739 1.54-1.503 1.08l-4.508-2.721a1.017 1.017 0 0 0-1.05 0l-4.508 2.72c-.764.461-1.711-.219-1.503-1.079l1.226-5.077a.987.987 0 0 0-.325-.985L25.1 8.509c-.68-.576-.318-1.676.574-1.746l5.266-.417c.377-.03.704-.265.85-.61L33.816.918ZM57.817.918c.344-.817 1.514-.817 1.858 0l2.029 4.818c.145.345.473.58.849.61l5.266.417c.892.07 1.254 1.17.574 1.746l-4.012 3.395a.987.987 0 0 0-.324.986l1.225 5.076c.208.86-.739 1.54-1.503 1.08l-4.508-2.721a1.017 1.017 0 0 0-1.05 0l-4.508 2.72c-.764.461-1.711-.219-1.503-1.079l1.225-5.077a.987.987 0 0 0-.324-.985L49.1 8.509c-.68-.576-.318-1.676.574-1.746l5.266-.417c.377-.03.704-.265.85-.61L57.816.918ZM81.817.918C82.16.1 83.33.1 83.675.918l2.029 4.818c.145.345.472.58.849.61l5.266.417c.892.07 1.254 1.17.574 1.746l-4.012 3.395a.987.987 0 0 0-.325.986l1.226 5.076c.208.86-.74 1.54-1.503 1.08l-4.509-2.721a1.017 1.017 0 0 0-1.049 0l-4.508 2.72c-.764.461-1.711-.219-1.503-1.079l1.225-5.077a.987.987 0 0 0-.324-.985L73.1 8.509c-.68-.576-.318-1.676.574-1.746l5.266-.417c.376-.03.704-.265.849-.61L81.817.918Z"/>
    <path fill="#030A06" d="M105.817.918c.343-.817 1.514-.817 1.858 0l2.029 4.818c.145.345.472.58.849.61l5.266.417c.892.07 1.254 1.17.574 1.746l-4.012 3.395a.988.988 0 0 0-.325.986l1.226 5.076c.208.86-.739 1.54-1.503 1.08l-4.509-2.721a1.017 1.017 0 0 0-1.049 0l-4.508 2.72c-.764.461-1.711-.219-1.504-1.079l1.226-5.077a.985.985 0 0 0-.324-.985l-4.012-3.395c-.68-.576-.318-1.676.574-1.746l5.266-.417c.376-.03.704-.265.849-.61l2.029-4.818Z"/>
  </g>
  <defs>
    <clipPath id="a">
      <path fill="#fff" d="M.746.305h116v18.89h-116z"/>
    </clipPath>
  </defs>
</svg>
