<svg xmlns="http://www.w3.org/2000/svg" fill="none" viewBox="0 0 21 20">
  <path fill="#030A06" d="M9.817.918C10.16.1 11.33.1 11.675.918l2.029 4.818c.145.345.472.58.848.61l5.267.417c.892.07 1.254 1.17.574 1.746l-4.012 3.395a.987.987 0 0 0-.325.986l1.226 5.076c.208.86-.74 1.54-1.503 1.08l-4.509-2.721a1.017 1.017 0 0 0-1.049 0l-4.508 2.72c-.764.461-1.711-.219-1.504-1.079l1.226-5.077a.987.987 0 0 0-.324-.985L1.1 8.509c-.68-.576-.318-1.676.574-1.746l5.266-.417c.376-.03.704-.265.849-.61L9.817.918Z"/>
</svg>
