<svg width="21" height="25" viewBox="0 0 21 25" fill="none" xmlns="http://www.w3.org/2000/svg">
<path d="M10.511 1.67665e-05C10.3831 0.000121449 10.2482 0.000231809 10.1218 0.0153144C8.65246 0.137887 7.30217 0.762078 6.34057 1.89921C5.2941 3.1367 5.04103 4.44052 5.05329 6.01595L2.25385 6.01167C2.12846 6.01156 1.99883 6.00797 1.86738 6.00433C1.50214 5.99422 1.12276 5.98371 0.780619 6.0464C0.574283 6.08422 0.394238 6.18458 0.24913 6.33563C-0.00492591 6.6001 -0.0110993 6.93417 0.00540926 7.27641C0.0314471 7.81604 0.0777927 8.35638 0.124085 8.89608C0.149268 9.18967 0.174457 9.48335 0.196343 9.77655L0.660986 15.7803L0.887061 18.6796C0.898198 18.8227 0.907092 18.9673 0.916024 19.1124C0.947952 19.6313 0.980349 20.1577 1.11733 20.6542C1.35398 21.4982 1.82298 22.2587 2.4709 22.8494C3.03716 23.3636 3.72159 23.7304 4.46351 23.917C5.09105 24.0685 5.82011 24.0514 6.50493 24.0353C6.70876 24.0305 6.90867 24.0258 7.10081 24.0256L10.8695 24.0245L14.1609 24.0259C14.3408 24.0259 14.5259 24.0303 14.7132 24.0348C15.3212 24.0492 15.9549 24.0643 16.523 23.9319C17.3222 23.7459 18.131 23.3071 18.7145 22.7286C19.2575 22.19 19.6913 21.4708 19.8808 20.7278C20.0259 20.1594 20.0623 19.5359 20.0976 18.9311C20.1089 18.7362 20.1202 18.543 20.135 18.3544L20.4439 14.3781L20.8291 9.49577C20.8477 9.25462 20.8718 9.01091 20.896 8.76667C20.9484 8.23728 21.0012 7.7039 21 7.18074C20.9994 6.85893 20.9313 6.55873 20.7007 6.31976C20.542 6.15509 20.2826 6.07467 20.0631 6.03886C19.734 5.98521 19.3732 5.99478 19.0241 6.00404C18.8951 6.00746 18.7676 6.01084 18.644 6.01097C17.7636 6.00925 16.8829 6.01237 16.0024 6.02026L15.9646 6.02081C15.9853 4.33367 15.6097 2.88594 14.3968 1.65203C13.3833 0.601918 11.9887 0.00611409 10.5295 0L10.511 1.67665e-05ZM15.8467 9.62343L15.8941 9.62617C15.8954 9.6294 15.8966 9.63239 15.8977 9.63517C15.8983 9.63664 15.8989 9.63804 15.8994 9.63939C15.9015 9.64443 15.9034 9.64877 15.905 9.65255L15.907 9.65709C15.9157 9.67682 15.9173 9.68044 15.9168 9.71217C15.9017 11.7809 15.3479 14.4445 13.8797 15.9596C12.52 17.3626 10.4086 18.0511 8.48315 18.0892C9.38 16.4024 10.8212 14.8027 12.3078 13.6146C12.5377 13.431 12.7783 13.265 13.0192 13.099C13.1742 12.9921 13.3293 12.8851 13.4817 12.7734C13.6296 12.6648 13.8287 12.5176 13.8497 12.3197C13.8689 12.1374 13.772 11.9959 13.6578 11.8657C13.498 11.773 13.3809 11.7344 13.1984 11.7879C12.9392 11.864 12.6781 12.0558 12.4424 12.2288C12.38 12.2746 12.3193 12.3192 12.2609 12.3599C10.3548 13.7097 8.77089 15.4644 7.62275 17.4982C7.58403 15.8435 7.96083 14.4573 8.97566 13.1263C10.4986 11.1289 13.4136 9.95493 15.8467 9.62343ZM1.04972 7.04795L19.9612 7.04765C19.894 7.68458 19.8506 8.32734 19.8072 8.96907C19.783 9.32659 19.7588 9.68411 19.7306 10.04L19.2214 16.4211L19.0309 18.7725C19.0225 18.8746 19.0147 18.9772 19.007 19.08C18.9764 19.4857 18.9456 19.8951 18.8673 20.2923C18.787 20.6999 18.6309 21.0542 18.4195 21.4097C18.338 21.5334 18.2495 21.6525 18.1546 21.7663C17.6064 22.4214 16.7064 22.9094 15.8516 22.974C15.3861 23.0092 14.9072 23.0004 14.4328 22.9916C14.2275 22.9879 14.0229 22.9841 13.8206 22.9839L9.89708 22.9828L6.77493 22.9842C6.62434 22.9843 6.47108 22.9875 6.31666 22.9906C5.84315 23.0004 5.35832 23.0105 4.90323 22.9321C4.30632 22.8279 3.74848 22.565 3.2885 22.1707C2.7375 21.7061 2.34207 21.0839 2.1555 20.3878C2.02787 19.9263 1.99605 19.4347 1.9648 18.952C1.95695 18.8307 1.94913 18.71 1.93985 18.5905L1.75415 16.198L1.04972 7.04795ZM16.2666 8.5147L16.2525 8.5162C13.3818 8.84828 10.1137 10.029 8.25813 12.3545C7.06547 13.849 6.41389 15.793 6.6291 17.7072C6.67636 18.1276 6.77156 18.5294 6.90878 18.9291C6.89325 18.9688 6.87431 19.0164 6.85276 19.0706C6.61717 19.6627 6.06956 21.039 6.26002 21.4461C6.3151 21.5637 6.42731 21.6426 6.54898 21.6813C6.59912 21.697 6.6496 21.7061 6.70177 21.7122C6.8626 21.6857 7.01126 21.6525 7.10807 21.5087C7.21202 21.3539 7.31847 20.9822 7.40951 20.6643C7.45289 20.5128 7.49278 20.3735 7.52726 20.2757C7.6452 19.9406 7.77913 19.6111 7.91287 19.282L7.91443 19.2782C7.93009 19.2396 7.94574 19.2011 7.96136 19.1626C10.3286 19.1696 12.8569 18.4286 14.5694 16.7389C16.4846 14.8489 16.967 11.8012 16.9708 9.22209C16.9711 9.01872 16.9571 8.77742 16.8083 8.62189C16.7169 8.52622 16.5792 8.49739 16.4514 8.50022C16.3897 8.50157 16.3281 8.50815 16.2666 8.5147ZM10.2808 1.03436C10.3725 1.02868 10.4645 1.02356 10.5563 1.0242C11.6807 1.03209 12.8065 1.53499 13.5967 2.32743C14.6725 3.40645 14.8926 4.55148 14.8949 6.01603L10.7752 6.01379L6.1394 6.01956C6.10394 4.76067 6.3067 3.61084 7.13259 2.6168C7.926 1.66187 9.05836 1.14357 10.2808 1.03436Z" fill="#030A06"/>
</svg>
