<svg aria-hidden="true" style="position: absolute; width: 0; height: 0; overflow: hidden;" version="1.1" xmlns="http://www.w3.org/2000/svg" xmlns:xlink="http://www.w3.org/1999/xlink">
<defs>
<symbol id="icon-stars" viewBox="0 0 32 32">
<path d="M2.685 13.516c0.094-0.223 0.414-0.223 0.508 0l0.555 1.318c0.040 0.094 0.129 0.159 0.232 0.167l1.44 0.114c0.244 0.019 0.343 0.32 0.157 0.478l-1.097 0.929c-0.059 0.050-0.096 0.124-0.096 0.207 0 0.022 0.003 0.044 0.008 0.065l-0-0.002 0.335 1.388c0.057 0.235-0.202 0.421-0.411 0.295l-1.233-0.744c-0.041-0.025-0.091-0.040-0.144-0.040s-0.103 0.015-0.145 0.041l0.001-0.001-1.233 0.744c-0.209 0.126-0.468-0.060-0.411-0.295l0.335-1.389c0.005-0.019 0.007-0.040 0.007-0.063 0-0.083-0.037-0.157-0.096-0.206l-1.097-0.929c-0.186-0.158-0.087-0.458 0.157-0.478l1.44-0.114c0.103-0.008 0.193-0.072 0.232-0.167l0.554-1.318zM9.249 13.516c0.094-0.223 0.414-0.223 0.508 0l0.555 1.318c0.040 0.094 0.129 0.159 0.232 0.167l1.44 0.114c0.244 0.019 0.343 0.32 0.157 0.478l-1.097 0.929c-0.059 0.050-0.096 0.124-0.096 0.207 0 0.022 0.003 0.044 0.008 0.065l-0-0.002 0.335 1.388c0.057 0.235-0.202 0.421-0.411 0.295l-1.233-0.744c-0.041-0.025-0.091-0.040-0.144-0.040s-0.103 0.015-0.145 0.041l0.001-0.001-1.233 0.744c-0.209 0.126-0.468-0.060-0.411-0.295l0.335-1.389c0.005-0.019 0.007-0.040 0.007-0.063 0-0.083-0.037-0.157-0.096-0.206l-1.097-0.929c-0.186-0.158-0.087-0.458 0.157-0.478l1.44-0.114c0.103-0.008 0.193-0.072 0.232-0.167l0.554-1.318zM15.813 13.516c0.094-0.223 0.414-0.223 0.508 0l0.555 1.318c0.040 0.094 0.129 0.159 0.232 0.167l1.44 0.114c0.244 0.019 0.343 0.32 0.157 0.478l-1.097 0.929c-0.059 0.050-0.096 0.124-0.096 0.207 0 0.022 0.003 0.044 0.008 0.065l-0-0.002 0.335 1.388c0.057 0.235-0.202 0.421-0.411 0.295l-1.233-0.744c-0.041-0.025-0.091-0.040-0.144-0.040s-0.103 0.015-0.145 0.041l0.001-0.001-1.233 0.744c-0.209 0.126-0.468-0.060-0.411-0.295l0.335-1.389c0.005-0.019 0.007-0.041 0.007-0.063 0-0.083-0.037-0.157-0.096-0.206l-0-0-1.097-0.929c-0.186-0.158-0.087-0.458 0.157-0.478l1.44-0.114c0.103-0.008 0.193-0.072 0.232-0.167l0.554-1.318zM22.377 13.516c0.094-0.224 0.414-0.224 0.508 0l0.555 1.318c0.040 0.094 0.129 0.159 0.232 0.167l1.44 0.114c0.244 0.019 0.343 0.32 0.157 0.478l-1.097 0.929c-0.059 0.050-0.096 0.124-0.096 0.207 0 0.022 0.003 0.044 0.008 0.065l-0-0.002 0.335 1.388c0.057 0.235-0.202 0.421-0.411 0.295l-1.233-0.744c-0.041-0.025-0.090-0.040-0.143-0.040s-0.103 0.015-0.145 0.041l0.001-0.001-1.233 0.744c-0.209 0.126-0.468-0.060-0.411-0.295l0.335-1.389c0.005-0.019 0.007-0.041 0.007-0.063 0-0.083-0.037-0.157-0.096-0.206l-0-0-1.097-0.929c-0.186-0.158-0.087-0.458 0.157-0.478l1.44-0.114c0.103-0.008 0.193-0.072 0.232-0.167l0.555-1.318z"></path>
<path d="M28.941 13.516c0.094-0.223 0.414-0.223 0.508 0l0.555 1.318c0.040 0.094 0.129 0.159 0.232 0.167l1.44 0.114c0.244 0.019 0.343 0.32 0.157 0.478l-1.097 0.929c-0.059 0.050-0.096 0.124-0.096 0.207 0 0.022 0.003 0.044 0.008 0.065l-0-0.002 0.335 1.388c0.057 0.235-0.202 0.421-0.411 0.295l-1.233-0.744c-0.041-0.025-0.090-0.040-0.143-0.040s-0.103 0.015-0.145 0.041l0.001-0.001-1.233 0.744c-0.209 0.126-0.468-0.060-0.411-0.295l0.335-1.389c0.005-0.019 0.008-0.041 0.008-0.063 0-0.083-0.037-0.157-0.096-0.206l-1.098-0.929c-0.186-0.158-0.087-0.458 0.157-0.478l1.44-0.114c0.103-0.008 0.193-0.072 0.232-0.167l0.555-1.318z"></path>
</symbol>
<symbol id="icon-star" viewBox="0 0 32 32">
<path d="M14.959 2.161c0.523-1.246 2.306-1.246 2.831 0l3.092 7.342c0.221 0.526 0.719 0.884 1.292 0.93l8.026 0.635c1.359 0.107 1.911 1.783 0.875 2.661l-6.114 5.173c-0.329 0.278-0.537 0.69-0.537 1.152 0 0.124 0.015 0.245 0.044 0.361l-0.002-0.010 1.868 7.735c0.317 1.31-1.128 2.347-2.29 1.646l-6.871-4.146c-0.228-0.139-0.504-0.222-0.799-0.222s-0.571 0.083-0.806 0.226l0.007-0.004-6.869 4.145c-1.164 0.702-2.607-0.334-2.292-1.644l1.868-7.736c0.026-0.105 0.041-0.226 0.041-0.351 0-0.46-0.207-0.873-0.533-1.149l-0.002-0.002-6.112-5.173c-1.036-0.878-0.485-2.554 0.875-2.661l8.024-0.635c0.573-0.046 1.073-0.404 1.294-0.93l3.090-7.342z"></path>
</symbol>
<symbol id="icon-instagram" viewBox="0 0 32 32">
<path d="M31.968 9.408c-0.074-1.7-0.35-2.87-0.744-3.882-0.424-1.111-1.053-2.058-1.849-2.837l-0.001-0.001c-0.78-0.792-1.724-1.419-2.778-1.826l-0.054-0.018c-1.020-0.394-2.18-0.67-3.88-0.744-1.716-0.080-2.262-0.1-6.602-0.1-4.346 0-4.89 0.020-6.596 0.094-1.7 0.074-2.868 0.35-3.88 0.744-1.112 0.424-2.060 1.053-2.839 1.849l-0.001 0.001c-0.792 0.78-1.419 1.724-1.826 2.778l-0.018 0.054c-0.394 1.020-0.668 2.18-0.744 3.88-0.080 1.714-0.1 2.26-0.1 6.602 0 4.346 0.020 4.89 0.094 6.596 0.074 1.7 0.35 2.87 0.744 3.882 0.406 1.076 1.038 2.038 1.85 2.84 0.8 0.81 1.77 1.442 2.832 1.842 1.020 0.394 2.18 0.67 3.882 0.744 1.706 0.076 2.25 0.094 6.596 0.094 4.344 0 4.888-0.020 6.594-0.094 1.7-0.074 2.87-0.35 3.882-0.744 2.156-0.85 3.832-2.524 4.663-4.625l0.019-0.055c0.394-1.020 0.67-2.184 0.744-3.884 0.076-1.706 0.094-2.25 0.094-6.594 0-4.346-0.006-4.89-0.080-6.596zM29.088 22.472c-0.070 1.564-0.332 2.408-0.552 2.97-0.551 1.4-1.638 2.488-3.002 3.027l-0.036 0.013c-0.562 0.218-1.412 0.48-2.968 0.548-1.688 0.076-2.194 0.094-6.464 0.094s-4.782-0.020-6.464-0.094c-1.564-0.068-2.408-0.33-2.97-0.55-0.721-0.269-1.335-0.676-1.837-1.193l-0.001-0.001c-0.517-0.504-0.923-1.118-1.183-1.804l-0.011-0.034c-0.22-0.562-0.48-1.412-0.55-2.968-0.074-1.688-0.094-2.196-0.094-6.464 0-4.27 0.020-4.782 0.094-6.464 0.070-1.564 0.332-2.406 0.55-2.97 0.256-0.694 0.664-1.324 1.2-1.838 0.52-0.53 1.144-0.938 1.84-1.194 0.56-0.22 1.412-0.48 2.968-0.55 1.688-0.074 2.194-0.094 6.464-0.094 4.276 0 4.78 0.020 6.464 0.094 1.562 0.070 2.406 0.332 2.968 0.55 0.694 0.256 1.326 0.664 1.84 1.194 0.53 0.52 0.936 1.144 1.192 1.84 0.22 0.56 0.482 1.412 0.55 2.968 0.076 1.688 0.094 2.194 0.094 6.464s-0.018 4.77-0.092 6.458z"></path>
<path d="M16.060 7.782c-4.462 0.102-8.041 3.743-8.041 8.22s3.578 8.118 8.031 8.22l0.009 0c4.462-0.102 8.041-3.743 8.041-8.22s-3.578-8.118-8.031-8.22l-0.009-0zM16.060 21.336c-2.946 0-5.334-2.388-5.334-5.334s2.388-5.334 5.334-5.334c2.946 0 5.334 2.388 5.334 5.334s-2.388 5.334-5.334 5.334zM26.524 7.458c0 1.060-0.86 1.92-1.92 1.92s-1.92-0.86-1.92-1.92 0.86-1.92 1.92-1.92 1.92 0.86 1.92 1.92z"></path>
</symbol>
<symbol id="icon-linkedin" viewBox="0 0 32 32">
<path d="M28.731 0.94h-24.632c-1.565 0-2.843 1.278-2.843 2.841v24.632c0 1.563 1.28 2.843 2.843 2.843h24.632c1.563 0 2.841-1.28 2.841-2.843v-24.632c0-1.563-1.28-2.841-2.841-2.841zM12.625 25.571h-3.789v-13.263h3.789v13.263zM10.73 10.413c-1.046 0-1.895-0.848-1.895-1.895s0.848-1.895 1.895-1.895v0c1.046 0 1.895 0.848 1.895 1.895s-0.848 1.895-1.895 1.895v0zM25.888 25.571h-3.789v-7.579c0-1.046-0.848-1.895-1.895-1.895s-1.895 0.848-1.895 1.895v0 7.579h-3.789v-13.263h3.789v2.349c0.781-1.071 1.977-2.349 3.316-2.349 2.358 0 4.263 2.119 4.263 4.736v8.527z"></path>
</symbol>
<symbol id="icon-youtube" viewBox="0 0 32 32">
<path d="M30.994 8.777c-0.364-1.312-1.376-2.324-2.661-2.682l-0.027-0.006c-2.386-0.655-11.931-0.666-11.931-0.666s-9.547-0.014-11.934 0.614c-1.308 0.382-2.316 1.397-2.681 2.682l-0.007 0.027c-0.631 2.386-0.637 7.336-0.637 7.336s-0.006 4.974 0.619 7.336c0.35 1.306 1.379 2.338 2.686 2.69 2.411 0.655 11.931 0.666 11.931 0.666s9.547 0.011 11.933-0.614c1.312-0.364 2.325-1.375 2.686-2.66l0.006-0.027c0.631-2.385 0.635-7.333 0.635-7.333s0.030-4.975-0.62-7.362zM13.32 20.669l0.008-9.143 7.934 4.579-7.942 4.564z"></path>
</symbol>
<symbol id="icon-hamburger" viewBox="0 0 32 32">
<path d="M0 4h32v4h-32v-4zM0 14h32v4h-32v-4zM0 24h32v4h-32v-4z"></path>
</symbol>
<symbol id="icon-close" viewBox="0 0 32 32">
<path d="M27.18 0.918l-11.318 11.312-11.31-11.312-3.77 3.77 11.312 11.312-11.314 11.312 3.77 3.772 11.312-11.312 11.314 11.312 3.772-3.772-11.31-11.312 11.312-11.312-3.772-3.768z"></path>
</symbol>
</defs>
</svg>
