<svg id="logo-text" xmlns="http://www.w3.org/2000/svg" viewBox="0 0 112 48">
<path d="M19.5,3.3c-0.2,0-0.4,0-0.6,0c-2.5,0.2-4.7,1.2-6.3,3.1c-1.7,2.1-2.2,4.2-2.1,6.9l-4.7,0
	c-0.2,0-0.4,0-0.6,0c-0.6,0-1.2,0-1.8,0.1c-0.3,0.1-0.6,0.2-0.9,0.5C2,14.4,2,14.9,2,15.5c0,0.9,0.1,1.8,0.2,2.7
	c0,0.5,0.1,1,0.1,1.5l0.8,10l0.4,4.8c0,0.2,0,0.5,0,0.7c0.1,0.9,0.1,1.7,0.3,2.6c0.7,2.7,2.9,4.8,5.6,5.4c1,0.3,2.3,0.2,3.4,0.2
	c0.3,0,0.7,0,1,0l6.3,0l5.5,0c0.3,0,0.6,0,0.9,0c1,0,2.1,0,3-0.2c1.3-0.3,2.7-1,3.7-2c0.9-0.9,1.6-2.1,1.9-3.3c0.2-1,0.3-2,0.4-3
	c0-0.3,0-0.6,0.1-1l0.5-6.6l0.6-8.2c0-0.4,0.1-0.8,0.1-1.2c0.1-0.9,0.2-1.8,0.2-2.6c0-0.5-0.1-1-0.5-1.4c-0.3-0.3-0.7-0.4-1.1-0.5
	c-0.5-0.1-1.2-0.1-1.7-0.1c-0.2,0-0.4,0-0.6,0c-1.5,0-2.9,0-4.4,0h-0.1c0-2.8-0.6-5.2-2.6-7.3C24.3,4.3,22,3.3,19.5,3.3L19.5,3.3
	L19.5,3.3z M28.5,19.4L28.5,19.4L28.5,19.4C28.5,19.4,28.6,19.4,28.5,19.4l0.1,0.1c0,0,0,0,0,0.1c0,3.5-1,7.9-3.4,10.4
	c-2.3,2.3-5.8,3.5-9,3.6c1.5-2.8,3.9-5.5,6.4-7.5c0.4-0.3,0.8-0.6,1.2-0.9c0.3-0.2,0.5-0.4,0.8-0.5c0.2-0.2,0.6-0.4,0.6-0.8
	c0-0.3-0.1-0.5-0.3-0.8C24.5,23,24.3,22.9,24,23c-0.4,0.1-0.9,0.4-1.3,0.7c-0.1,0.1-0.2,0.2-0.3,0.2c-3.2,2.3-5.8,5.2-7.7,8.6
	c-0.1-2.8,0.6-5.1,2.3-7.3C19.5,21.9,24.4,20,28.5,19.4z M3.8,15.1h31.6c-0.1,1.1-0.2,2.1-0.3,3.2c0,0.6-0.1,1.2-0.1,1.8l-0.8,10.7
	l-0.3,3.9l0,0.5c-0.1,0.7-0.1,1.4-0.2,2c-0.1,0.7-0.4,1.3-0.7,1.9c-0.1,0.2-0.3,0.4-0.4,0.6c-0.9,1.1-2.4,1.9-3.8,2
	c-0.8,0.1-1.6,0-2.4,0c-0.3,0-0.7,0-1,0l-6.6,0l-5.2,0c-0.3,0-0.5,0-0.8,0c-0.8,0-1.6,0-2.4-0.1c-1-0.2-1.9-0.6-2.7-1.3
	c-0.9-0.8-1.6-1.8-1.9-3c-0.2-0.8-0.3-1.6-0.3-2.4c0-0.2,0-0.4,0-0.6l-0.3-4C4.9,30.4,3.8,15.1,3.8,15.1z M29.2,17.5L29.2,17.5
	c-4.8,0.6-10.3,2.5-13.4,6.4c-2,2.5-3.1,5.7-2.7,8.9c0.1,0.7,0.2,1.4,0.5,2l-0.1,0.2c-0.4,1-1.3,3.3-1,4c0.1,0.2,0.3,0.3,0.5,0.4
	c0.1,0,0.2,0,0.3,0.1c0.3,0,0.5-0.1,0.7-0.3c0.2-0.3,0.4-0.9,0.5-1.4c0.1-0.3,0.1-0.5,0.2-0.6c0.2-0.6,0.4-1.1,0.6-1.7l0,0l0.1-0.2
	c4,0,8.2-1.2,11-4c3.2-3.2,4-8.2,4-12.6c0-0.3,0-0.7-0.3-1c-0.2-0.2-0.4-0.2-0.6-0.2C29.4,17.5,29.3,17.5,29.2,17.5L29.2,17.5z
	 M19.2,5.1c0.2,0,0.3,0,0.5,0c1.9,0,3.8,0.9,5.1,2.2c1.8,1.8,2.2,3.7,2.2,6.2l-6.9,0l-7.7,0c-0.1-2.1,0.3-4,1.7-5.7
	C15.2,6.1,17.1,5.2,19.2,5.1L19.2,5.1z M28.5,19.4L28.5,19.4c-4.1,0.5-9,2.5-11.6,5.8c-1.7,2.2-2.3,4.5-2.3,7.3
	c1.9-3.4,4.6-6.3,7.7-8.6c0.1-0.1,0.2-0.1,0.3-0.2c0.4-0.3,0.8-0.6,1.3-0.7c0.3-0.1,0.5,0,0.8,0.1c0.2,0.2,0.4,0.5,0.3,0.8
	c0,0.3-0.4,0.6-0.6,0.8c-0.3,0.2-0.5,0.4-0.8,0.5c-0.4,0.3-0.8,0.6-1.2,0.9c-2.5,2-4.9,4.7-6.4,7.5c3.2-0.1,6.7-1.2,9-3.6
	c2.5-2.5,3.4-7,3.4-10.4C28.6,19.5,28.6,19.5,28.5,19.4C28.6,19.4,28.6,19.4,28.5,19.4L28.5,19.4z M29.1,17.6L29.1,17.6
	c0.1,0,0.2,0,0.3,0c0.2,0,0.4,0,0.6,0.2c0.2,0.3,0.3,0.7,0.3,1c0,4.3-0.8,9.4-4,12.6c-2.9,2.8-7.1,4.1-11,4l-0.1,0.2l0,0
	c-0.2,0.5-0.4,1.1-0.6,1.7c-0.1,0.2-0.1,0.4-0.2,0.6c-0.2,0.5-0.3,1.2-0.5,1.4c-0.2,0.2-0.4,0.3-0.7,0.3c-0.1,0-0.2,0-0.3-0.1
	c-0.2-0.1-0.4-0.2-0.5-0.4c-0.3-0.7,0.6-3,1-4l0.1-0.2c-0.2-0.7-0.4-1.3-0.5-2c-0.4-3.2,0.7-6.4,2.7-8.9
	C18.9,20.1,24.3,18.1,29.1,17.6z M29.2,17.5L29.2,17.5c-4.8,0.6-10.3,2.5-13.4,6.4c-2,2.5-3.1,5.7-2.7,8.9c0.1,0.7,0.2,1.4,0.5,2
	l-0.1,0.2c-0.4,1-1.3,3.3-1,4c0.1,0.2,0.3,0.3,0.5,0.4c0.1,0,0.2,0,0.3,0.1c0.3,0,0.5-0.1,0.7-0.3c0.2-0.3,0.4-0.9,0.5-1.4
	c0.1-0.3,0.1-0.5,0.2-0.6c0.2-0.6,0.4-1.1,0.6-1.7l0,0l0.1-0.2c4,0,8.2-1.2,11-4c3.2-3.2,4-8.2,4-12.6c0-0.3,0-0.7-0.3-1
	c-0.2-0.2-0.4-0.2-0.6-0.2C29.4,17.5,29.3,17.5,29.2,17.5z M28.5,19.4L28.5,19.4C28.5,19.4,28.5,19.4,28.5,19.4l0.1,0.1
	c0,0,0,0,0,0.1c0,3.5-1,7.9-3.4,10.4c-2.3,2.3-5.8,3.5-9,3.6c1.5-2.8,3.9-5.5,6.4-7.5c0.4-0.3,0.8-0.6,1.2-0.9
	c0.3-0.2,0.5-0.4,0.8-0.5c0.2-0.2,0.6-0.4,0.6-0.8c0-0.3-0.1-0.5-0.3-0.8C24.5,23,24.3,22.9,24,23c-0.4,0.1-0.9,0.4-1.3,0.7
	c-0.1,0.1-0.2,0.2-0.3,0.2c-3.2,2.3-5.8,5.2-7.7,8.6c-0.1-2.8,0.6-5.1,2.3-7.3C19.5,21.9,24.4,20,28.5,19.4L28.5,19.4z M90.9,29.3
	c-0.1-3.4-3-6.1-6.4-5.9c-3.4,0.1-6.1,3-5.9,6.4c0.1,3.4,3,6.1,6.4,5.9S91,32.7,90.9,29.3L90.9,29.3z M84.7,25.2
	c1,0,1.8,0.3,2.5,0.9c0.9,0.8,1.4,1.9,1.5,3.1s-0.3,2.4-1.1,3.3c-0.7,0.8-1.7,1.2-2.8,1.2c-1,0-1.8-0.2-2.6-0.8
	c-0.9-0.8-1.4-1.9-1.5-3.1c-0.1-1.2,0.2-2.5,1-3.4C82.6,25.6,83.5,25.3,84.7,25.2z M73.8,28.7c-0.4-3.4-3.5-5.8-6.8-5.4
	c-3.4,0.4-5.8,3.5-5.4,6.8s3.5,5.8,6.8,5.4C71.8,35.2,74.2,32.1,73.8,28.7L73.8,28.7z M67.1,25.2c1-0.1,1.9,0,2.7,0.6
	c0.9,0.6,1.5,1.6,1.7,2.7c0.2,1.3,0,2.6-0.7,3.7c-0.7,0.9-1.5,1.4-2.6,1.5c-1,0.1-1.9,0-2.7-0.6c-0.9-0.6-1.5-1.6-1.7-2.7
	c-0.2-1.2,0-2.6,0.8-3.6C65.2,25.9,66.1,25.4,67.1,25.2L67.1,25.2z M103.8,23.3C103.7,23.3,103.7,23.3,103.8,23.3
	c-1.6,0.2-3,0.9-4,2.2c-1.1,1.4-1.5,3.2-1.3,4.9c0.2,1.5,1,3,2.2,3.9c1.5,1.1,3.3,1.4,5.1,1.2c1-0.1,2.6-0.6,3.3-1.5
	c0.2-0.2,0.3-0.5,0.2-0.8c0-0.2-0.1-0.4-0.3-0.6c-0.2-0.2-0.5-0.2-0.7-0.1c-0.3,0.1-0.6,0.3-0.9,0.5c-0.1,0-0.1,0.1-0.2,0.1
	c-1.3,0.7-2.6,1-4,0.5c-1-0.3-1.8-1-2.2-2c-0.2-0.5-0.4-1-0.5-1.5h5.9c0.2,0,0.5,0,0.8,0c0.7,0,1.5,0,2.1-0.1c0.2,0,0.3-0.1,0.5-0.2
	c0.3-0.3,0.3-0.7,0.3-1.1c0-1.5-0.7-2.9-1.8-3.9C106.9,23.7,105.4,23.2,103.8,23.3z M104,25.2c0.9-0.1,1.8,0.1,2.5,0.6
	c0.9,0.6,1.3,1.5,1.5,2.6c-0.7,0-1.5,0-2.2,0l-1.1,0l-4.2,0c0.2-0.6,0.4-1.2,0.8-1.8C102,25.8,102.9,25.3,104,25.2z M70.9,18.9
	c2.2-0.1,4.4,0,6.7,0c1.3,0,2.9-0.1,4.1,0c0.2,0,0.4,0.1,0.5,0.2c0.2,0.2,0.4,0.5,0.4,0.8c0,0.3-0.2,0.6-0.3,0.7
	c-0.1,0.1-0.3,0.2-0.5,0.2c-0.5,0.1-1.1,0-1.6,0l-2.8,0l0,10.2c0,0.9,0.1,2.7,0,3.5c0,0.2-0.1,0.5-0.3,0.6c-0.2,0.2-0.4,0.3-0.7,0.3
	c-0.3,0-0.5-0.1-0.7-0.2c-0.2-0.2-0.3-0.6-0.3-0.9c-0.1-0.6,0-1.2,0-1.7c0-0.8,0-1.7,0-2.5l0-9.2c-0.9,0-4.1,0.1-4.7-0.1
	c-0.2-0.1-0.4-0.3-0.5-0.5c-0.1-0.3-0.1-0.5,0.1-0.8C70.4,19.1,70.6,19,70.9,18.9L70.9,18.9z M56.3,23.3c0.8,0,1.6,0,2.4,0.2
	c0.8,0.2,2.1,0.7,2.6,1.5c0.1,0.2,0.2,0.5,0.1,0.7c-0.1,0.2-0.3,0.4-0.6,0.5c-0.7,0.3-1.6-0.7-2.2-0.9c-1.1-0.4-2.3-0.4-3.4,0.1
	c-1,0.4-1.6,1.3-2,2.3c-0.4,1.1-0.4,2.6,0.1,3.7c0.5,1,1.4,1.7,2.4,2.1c1.2,0.4,2.5,0.2,3.6-0.3c0.3-0.2,0.7-0.4,1.1-0.5
	c0.2,0,0.4,0,0.6,0.1c0.2,0.2,0.4,0.4,0.4,0.7c0,0.2-0.1,0.5-0.2,0.7c-0.7,0.8-2.1,1.2-3.1,1.4c-1.7,0.2-3.5-0.1-4.9-1.2
	c-1.3-1-2.1-2.5-2.3-4.2c-0.2-1.6,0.3-3.3,1.3-4.6C53.2,24.3,54.7,23.5,56.3,23.3z M93.4,20.2l0.1,0c0.3,0,0.6,0.1,0.8,0.3
	c0.5,0.5,0.3,2.4,0.3,3.1c0.7,0,2.4-0.2,3,0.3c0.2,0.2,0.3,0.4,0.3,0.7c0,0.2-0.1,0.5-0.2,0.6c-0.5,0.5-2.3,0.3-3,0.3
	c0,1.5-0.2,6.1,0.3,7.3c0.7,1.8,2.4,0.2,3.3,0.7c0.2,0.1,0.4,0.3,0.4,0.5c0.1,0.3,0,0.6-0.1,0.8l-0.1,0.1c-0.6,0.6-1.6,0.7-2.4,0.7
	c-0.9,0-1.7-0.1-2.4-0.8c-0.5-0.5-0.8-1.1-0.9-1.8c-0.2-1-0.1-2.1-0.1-3.2l0-4.3c-0.5,0-1.1,0-1.6,0c-0.1-0.1-0.2-0.1-0.3-0.2
	c-0.2-0.2-0.3-0.5-0.3-0.8c0-0.2,0.1-0.5,0.2-0.6c0.4-0.4,1.4-0.3,2-0.2c0-0.8-0.2-2.2,0.1-2.9C92.9,20.5,93.1,20.3,93.4,20.2z
	 M50.4,19.9c-0.9-0.1-5.5-0.1-7.1,0c-0.3,0-0.6,0-0.8,0c-0.2,0-0.4,0-0.5,0c0,0-0.6,0.1-0.8,0.4c-0.1,0.2-0.2,0.4-0.2,0.6
	c-0.2,1.2-0.3,2.4-0.4,3.6c-0.1,0.6-0.1,1.3-0.2,1.9l-0.6,6.1c0,0.2,0,0.4-0.1,0.6c-0.1,0.8-0.2,1.9-0.2,2.4c0,0.2,0.2,0.5,0.4,0.6
	c0.2,0.1,0.5,0.2,0.7,0.2h0c0.5,0,1.3,0,2.1,0c1.8,0,6.3,0,7.4,0c0.2,0,0.4,0,0.6-0.1c0.3-0.1,0.5-0.3,0.6-0.6
	c0.1-0.3,0.1-0.6,0-0.8c-0.1-0.2-0.3-0.4-0.6-0.5h-9.1c0.2-1.3,0.3-2.7,0.4-4l0.1-1.1l0-0.1c0.1,0,0.2,0,0.3,0c0.9,0,5.4,0,6,0
	c0.2,0,0.4-0.1,0.6-0.2c0.2-0.2,0.3-0.5,0.3-0.8c0-0.2-0.1-0.5-0.3-0.7c-0.1-0.1-0.3-0.2-0.4-0.2c-0.5-0.1-4.6-0.1-5.6,0
	c-0.3,0-0.5,0-0.6,0l0.5-5.4h4.9c0.2,0,0.5,0,0.8,0c0.6,0,1.3,0,1.9-0.1c0.2,0,0.4-0.1,0.5-0.3c0.2-0.2,0.3-0.5,0.3-0.7
	C51.2,20.3,50.9,20,50.4,19.9L50.4,19.9z"/>
</svg>
